<?xml version="1.0" encoding="UTF-8"?>
<svg id="Layer_2" data-name="Layer 2" xmlns="http://www.w3.org/2000/svg" viewBox="0 0 1421.19 592.05">
  <defs>
    <style>
      .cls-1 {
        fill: #fff;
      }
    </style>
  </defs>
  <g id="graphics">
    <g>
      <path class="cls-1" d="M488.89,84.75h36.49v20.85h.58c3.09-6.37,8.4-12.06,15.93-17.09,7.53-5.02,16.89-7.53,28.09-7.53,12.93,0,24.18,3.19,33.74,9.56s16.94,15.25,22.16,26.64c5.21,11.4,7.82,24.23,7.82,38.52s-2.65,26.79-7.96,38.08-12.79,20.23-22.44,26.79c-9.66,6.56-20.75,9.85-33.3,9.85-10.04,0-18.88-2.37-26.5-7.09-7.63-4.73-12.99-10.18-16.08-16.37h-.58v72.98h-37.94V84.75ZM535.52,190.01c5.98,8.4,14.48,12.6,25.49,12.6s18.97-4.15,25.05-12.45c6.08-8.3,9.12-19.79,9.12-34.46s-3.04-26.16-9.12-34.46c-6.08-8.3-14.63-12.45-25.63-12.45s-19.17,4.2-25.05,12.6c-5.89,8.4-8.83,19.84-8.83,34.32s2.99,25.92,8.98,34.32Z"/>
      <path class="cls-1" d="M679.3,220.71c-10.91-6.46-19.21-15.39-24.91-26.78-5.7-11.39-8.54-24.13-8.54-38.23s2.85-26.55,8.54-37.94c5.69-11.39,13.99-20.37,24.91-26.93,10.9-6.56,23.79-9.84,38.66-9.84,23.17,0,40.69,7.48,52.56,22.44,11.88,14.96,17.33,35.28,16.37,60.96h-103.1c.58,11.78,3.81,21.14,9.7,28.09,5.89,6.95,14.14,10.43,24.76,10.43,8.11,0,14.72-1.98,19.84-5.94,5.11-3.96,8.54-8.83,10.28-14.63h37.07c-3.86,14.1-11.63,25.63-23.31,34.61-11.68,8.98-26.31,13.47-43.87,13.47-15.06,0-28.05-3.24-38.95-9.7ZM748.94,142.38c-.97-11-4.1-19.45-9.41-25.34-5.31-5.89-12.69-8.83-22.15-8.83s-16.99,3-22.59,8.98c-5.6,5.99-9.17,14.39-10.71,25.2h64.87Z"/>
      <path class="cls-1" d="M805.99,84.75h36.49v20.85h.58c3.09-6.37,8.4-12.06,15.93-17.09,7.53-5.02,16.89-7.53,28.09-7.53,12.93,0,24.18,3.19,33.74,9.56s16.94,15.25,22.16,26.64c5.21,11.4,7.82,24.23,7.82,38.52s-2.65,26.79-7.96,38.08c-5.31,11.29-12.79,20.23-22.44,26.79-9.66,6.56-20.75,9.85-33.3,9.85-10.04,0-18.88-2.37-26.5-7.09-7.63-4.73-12.99-10.18-16.08-16.37h-.58v72.98h-37.94V84.75ZM852.62,190.01c5.98,8.4,14.48,12.6,25.49,12.6s18.97-4.15,25.05-12.45c6.08-8.3,9.12-19.79,9.12-34.46s-3.04-26.16-9.12-34.46c-6.08-8.3-14.63-12.45-25.63-12.45s-19.17,4.2-25.05,12.6c-5.89,8.4-8.83,19.84-8.83,34.32s2.99,25.92,8.98,34.32Z"/>
      <path class="cls-1" d="M986.7,221c-7.53-6.27-11.29-16.17-11.29-29.68v-80.22h-18.53v-26.35h18.53v-42.57h37.36v42.57h27.8v26.35h-27.8v72.98c0,5.21,1.2,9.02,3.62,11.44,2.41,2.42,5.55,3.62,9.41,3.62,5.79.19,11-.19,15.64-1.16v28.96c-2.51.77-6.23,1.54-11.15,2.32-4.93.77-9.7,1.16-14.34,1.16-11.97,0-21.72-3.14-29.25-9.41Z"/>
      <path class="cls-1" d="M1059.97,23.93h37.94v35.04h-37.94V23.93ZM1059.97,84.75h37.94v141.9h-37.94V84.75Z"/>
      <path class="cls-1" d="M1146.84,220.71c-9.66-6.46-17.14-15.39-22.44-26.78-5.31-11.39-7.96-24.23-7.96-38.52s2.65-26.54,7.96-37.94c5.31-11.39,12.79-20.32,22.44-26.79,9.65-6.47,20.75-9.7,33.31-9.7,10.23,0,19.16,2.32,26.78,6.95s12.89,10.04,15.79,16.22h.87V23.93h37.93v202.72h-36.49v-21.43h-.87c-3.09,6.37-8.35,12.16-15.78,17.37-7.44,5.22-16.75,7.82-27.95,7.82-12.74,0-23.94-3.24-33.59-9.7ZM1164.36,190.01c6.08,8.4,14.53,12.6,25.34,12.6s19.16-4.2,25.05-12.6c5.89-8.4,8.83-19.84,8.83-34.32s-3-25.92-8.98-34.32c-5.99-8.4-14.38-12.6-25.19-12.6s-19.21,4.15-25.2,12.45c-5.99,8.3-8.98,19.79-8.98,34.46s3.04,25.92,9.12,34.32Z"/>
      <path class="cls-1" d="M1313.5,220.71c-10.91-6.46-19.21-15.39-24.91-26.78-5.7-11.39-8.54-24.13-8.54-38.23s2.85-26.55,8.54-37.94c5.69-11.39,13.99-20.37,24.91-26.93,10.9-6.56,23.79-9.84,38.66-9.84,23.17,0,40.69,7.48,52.56,22.44,11.88,14.96,17.33,35.28,16.37,60.96h-103.1c.58,11.78,3.81,21.14,9.7,28.09,5.89,6.95,14.14,10.43,24.76,10.43,8.11,0,14.72-1.98,19.84-5.94,5.11-3.96,8.54-8.83,10.28-14.63h37.07c-3.86,14.1-11.63,25.63-23.31,34.61-11.68,8.98-26.31,13.47-43.87,13.47-15.06,0-28.05-3.24-38.95-9.7ZM1383.15,142.38c-.97-11-4.1-19.45-9.41-25.34-5.31-5.89-12.69-8.83-22.15-8.83s-16.99,3-22.59,8.98c-5.6,5.99-9.17,14.39-10.71,25.2h64.87Z"/>
    </g>
    <g>
      <path class="cls-1" d="M908.97,351.18c-4.49-2.05-8-4.91-10.54-8.56-2.54-3.66-3.86-7.84-3.95-12.52h7.03c.1,5.47,2.42,9.81,6.96,13.03,4.54,3.22,9.98,4.83,16.33,4.83,5.66,0,10.52-1.29,14.57-3.88,4.05-2.59,6.08-6.03,6.08-10.32,0-2.73-.95-4.98-2.86-6.73-1.91-1.76-4.27-3.15-7.1-4.17-2.83-1.02-6.74-2.22-11.71-3.59-5.86-1.56-10.55-3.03-14.06-4.39-3.52-1.37-6.49-3.32-8.93-5.86-2.44-2.53-3.66-5.8-3.66-9.81,0-5.95,2.47-10.71,7.4-14.28,4.93-3.56,11.2-5.34,18.82-5.34s14.25,1.95,19.03,5.85c4.78,3.91,7.52,8.98,8.2,15.23h-6.88c-.68-4.88-2.93-8.59-6.74-11.13-3.81-2.54-8.35-3.81-13.62-3.81s-9.66,1.12-13.47,3.37c-3.81,2.25-5.71,5.42-5.71,9.52,0,2.73.97,5,2.93,6.81,1.95,1.81,4.42,3.25,7.4,4.32,2.98,1.07,6.9,2.24,11.79,3.51,5.66,1.47,10.23,2.88,13.69,4.25s6.42,3.27,8.86,5.71c2.44,2.44,3.66,5.62,3.66,9.52s-1.17,7.64-3.52,10.91-5.66,5.85-9.95,7.76c-4.3,1.9-9.23,2.85-14.79,2.85s-10.74-1.02-15.23-3.07Z"/>
      <path class="cls-1" d="M973.25,350.09c-2.54-2.78-3.81-7.4-3.81-13.84v-49.2h-8.93v-6.01h8.93v-21.52h7.17v21.52h16.11v6.01h-16.11v49.35c0,7.61,2.69,11.42,8.06,11.42,2.64.1,5.32-.14,8.05-.73v5.86c-.88.29-2.17.58-3.88.88-1.71.29-3.3.44-4.76.44-4.69,0-8.3-1.39-10.84-4.17Z"/>
      <path class="cls-1" d="M1008.61,348.92c-4.05-3.56-6.08-8.52-6.08-14.86,0-4.98,1.39-8.93,4.17-11.86,2.78-2.93,6.17-5.02,10.18-6.3,4-1.27,8.93-2.39,14.79-3.37,7.03-1.17,12.3-2.44,15.81-3.81,3.52-1.37,5.27-3.66,5.27-6.88,0-10.84-6.4-16.25-19.18-16.25-6.44,0-11.45,1.29-15.01,3.88-3.57,2.59-5.59,6.71-6.08,12.37h-6.88c.39-6.83,3.03-12.25,7.91-16.25,4.88-4,11.52-6,19.91-6s14.96,2.07,19.4,6.22c4.44,4.15,6.66,10.08,6.66,17.79v35.88c0,3.13.37,5.32,1.1,6.59.73,1.27,1.83,1.9,3.29,1.9.88,0,1.9-.15,3.07-.44v5.12c-1.66.49-3.32.73-4.98.73-2.64,0-4.79-.93-6.44-2.78-1.66-1.85-2.49-4.78-2.49-8.79v-2.2h-.29c-2.05,4.1-5.44,7.57-10.18,10.4-4.73,2.83-10.47,4.25-17.2,4.25-7.13,0-12.72-1.78-16.77-5.34ZM1014.4,344.96c3.32,2.29,7.52,3.44,12.59,3.44,4.49,0,8.71-.98,12.67-2.93,3.95-1.95,7.13-4.54,9.52-7.76s3.59-6.69,3.59-10.4v-16.54c-1.27,1.66-3.56,3-6.88,4.03-3.32,1.02-7.52,1.93-12.6,2.71-7.61,1.27-13.49,3-17.64,5.2-4.15,2.2-6.22,5.88-6.22,11.05s1.66,8.91,4.98,11.21Z"/>
      <path class="cls-1" d="M1080.14,281.04h7.18v12.3h.29c2.64-4.29,5.95-7.66,9.96-10.11,4-2.44,8.59-3.66,13.76-3.66,7.71,0,13.82,2.12,18.3,6.37s6.74,10.13,6.74,17.64v49.2h-7.17v-47.74c0-6.83-1.85-11.74-5.56-14.72-3.71-2.98-8.25-4.46-13.62-4.46-4.3,0-8.18,1.05-11.64,3.15-3.47,2.1-6.18,4.66-8.13,7.69-1.95,3.03-2.93,5.81-2.93,8.35v47.74h-7.18v-71.75Z"/>
      <path class="cls-1" d="M1166.24,349.21c-4.88-3.37-8.59-7.91-11.13-13.62-2.54-5.71-3.81-12.03-3.81-18.96s1.27-13.05,3.81-18.67c2.53-5.61,6.24-10.08,11.13-13.4,4.88-3.32,10.64-4.98,17.28-4.98s11.79,1.66,16.33,4.98c4.54,3.32,7.74,7.67,9.59,13.03h.29v-47.3h7.03v102.5h-7.03v-16.98h-.29c-1.85,5.56-5.03,10.03-9.52,13.4-4.49,3.36-9.91,5.05-16.25,5.05-6.74,0-12.54-1.68-17.43-5.05ZM1161.7,333.1c2.15,4.73,5.2,8.39,9.15,10.98,3.96,2.59,8.52,3.88,13.69,3.88,7.61,0,13.72-2.8,18.3-8.42s6.88-13.25,6.88-22.92c0-6.05-1.05-11.42-3.15-16.11-2.1-4.68-5.08-8.32-8.93-10.91-3.86-2.59-8.27-3.88-13.25-3.88s-9.57,1.27-13.47,3.81c-3.9,2.54-6.96,6.15-9.15,10.83-2.2,4.69-3.3,10.11-3.3,16.25s1.08,11.74,3.22,16.48Z"/>
      <path class="cls-1" d="M1238.36,348.92c-4.05-3.56-6.08-8.52-6.08-14.86,0-4.98,1.39-8.93,4.17-11.86,2.78-2.93,6.17-5.02,10.18-6.3,4-1.27,8.93-2.39,14.79-3.37,7.03-1.17,12.3-2.44,15.81-3.81,3.52-1.37,5.27-3.66,5.27-6.88,0-10.84-6.4-16.25-19.18-16.25-6.44,0-11.45,1.29-15.01,3.88-3.57,2.59-5.59,6.71-6.08,12.37h-6.88c.39-6.83,3.03-12.25,7.91-16.25,4.88-4,11.52-6,19.91-6s14.96,2.07,19.4,6.22c4.44,4.15,6.66,10.08,6.66,17.79v35.88c0,3.13.37,5.32,1.1,6.59.73,1.27,1.83,1.9,3.29,1.9.88,0,1.9-.15,3.07-.44v5.12c-1.66.49-3.32.73-4.98.73-2.64,0-4.79-.93-6.44-2.78-1.66-1.85-2.49-4.78-2.49-8.79v-2.2h-.29c-2.05,4.1-5.44,7.57-10.18,10.4-4.73,2.83-10.47,4.25-17.2,4.25-7.13,0-12.72-1.78-16.77-5.34ZM1244.14,344.96c3.32,2.29,7.52,3.44,12.59,3.44,4.49,0,8.71-.98,12.67-2.93,3.95-1.95,7.13-4.54,9.52-7.76s3.59-6.69,3.59-10.4v-16.54c-1.27,1.66-3.56,3-6.88,4.03-3.32,1.02-7.52,1.93-12.6,2.71-7.61,1.27-13.49,3-17.64,5.2-4.15,2.2-6.22,5.88-6.22,11.05s1.66,8.91,4.98,11.21Z"/>
      <path class="cls-1" d="M1309.89,281.04h7.18v14.65h.29c1.66-4.59,4.22-8.37,7.69-11.35,3.46-2.98,7.93-4.47,13.4-4.47,1.95,0,3.61.2,4.98.59v6.88c-1.37-.39-3.03-.59-4.98-.59-4.39,0-8.2,1.15-11.42,3.44-3.22,2.3-5.69,5.08-7.39,8.35-1.71,3.27-2.56,6.37-2.56,9.3v44.95h-7.18v-71.75Z"/>
      <path class="cls-1" d="M1365.09,349.21c-4.88-3.37-8.59-7.91-11.13-13.62-2.54-5.71-3.81-12.03-3.81-18.96s1.27-13.05,3.81-18.67c2.53-5.61,6.24-10.08,11.13-13.4,4.88-3.32,10.64-4.98,17.28-4.98s11.79,1.66,16.33,4.98c4.54,3.32,7.74,7.67,9.59,13.03h.29v-47.3h7.03v102.5h-7.03v-16.98h-.29c-1.85,5.56-5.03,10.03-9.52,13.4-4.49,3.36-9.91,5.05-16.25,5.05-6.74,0-12.54-1.68-17.43-5.05ZM1360.55,333.1c2.15,4.73,5.2,8.39,9.15,10.98,3.96,2.59,8.52,3.88,13.69,3.88,7.61,0,13.72-2.8,18.3-8.42s6.88-13.25,6.88-22.92c0-6.05-1.05-11.42-3.15-16.11-2.1-4.68-5.08-8.32-8.93-10.91-3.86-2.59-8.27-3.88-13.25-3.88s-9.57,1.27-13.47,3.81c-3.9,2.54-6.96,6.15-9.15,10.83-2.2,4.69-3.3,10.11-3.3,16.25s1.08,11.74,3.22,16.48Z"/>
    </g>
    <rect class="cls-1" x="488.65" y="320.61" width="355.35" height="6.75"/>
    <g>
      <text/>
      <g>
        <path class="cls-1" d="M428.55,80.52c-.96-34.3-24.03-62.7-57.42-70.67-24.71-5.88-49.43.76-67.24,16.86-6.25,5.65-11.64,12.47-15.88,20.31l-128.61,237.8,66.53-1.85,112.78-208.53c5.64-10.43,15.21-9.43,19.06-8.51,3.85.92,12.84,4.33,13.16,16.19l2.82,101.33,60.39,98.19-5.59-201.11Z"/>
        <path class="cls-1" d="M48.08,233.15c-29.23,17.98-42.28,52.16-32.48,85.05,7.26,24.35,25.37,42.43,48.22,49.8,8.01,2.58,16.61,3.85,25.53,3.6l270.24-7.52-34.86-56.69-236.99,6.59c-11.85.33-15.77-8.46-16.9-12.25-1.13-3.79-2.67-13.28,7.44-19.49l86.34-53.1,54.84-101.39L48.08,233.15Z"/>
        <path class="cls-1" d="M370.51,486.33c30.18,16.33,66.31,10.55,89.89-14.39,17.45-18.46,24.06-43.19,19.02-66.66-1.77-8.23-4.97-16.32-9.65-23.91l-141.63-230.28-31.66,58.54,124.2,201.93c6.22,10.1.57,17.89-2.15,20.76-2.72,2.87-10.16,8.95-20.6,3.3l-89.17-48.22-115.22,3.2,176.97,95.71Z"/>
      </g>
    </g>
  </g>
</svg>
