<?xml version="1.0" encoding="UTF-8"?>
<svg id="Layer_2" data-name="Layer 2" xmlns="http://www.w3.org/2000/svg" viewBox="0 0 481.07 592.05">
  <g id="graphics">
    <g>
      <text/>
      <g>
        <path d="M428.55,80.52c-.96-34.3-24.03-62.7-57.42-70.67-24.71-5.88-49.43.76-67.24,16.86-6.25,5.65-11.64,12.47-15.88,20.31l-128.61,237.8,66.53-1.85,112.78-208.53c5.64-10.43,15.21-9.43,19.06-8.51,3.85.92,12.84,4.33,13.16,16.19l2.82,101.33,60.39,98.19-5.59-201.11Z"/>
        <path d="M48.08,233.15c-29.23,17.98-42.28,52.16-32.48,85.05,7.26,24.35,25.37,42.43,48.22,49.8,8.01,2.58,16.61,3.85,25.53,3.6l270.24-7.52-34.86-56.69-236.99,6.59c-11.85.33-15.77-8.46-16.9-12.25-1.13-3.79-2.67-13.28,7.44-19.49l86.34-53.1,54.84-101.39L48.08,233.15Z"/>
        <path d="M370.51,486.33c30.18,16.33,66.31,10.55,89.89-14.39,17.45-18.46,24.06-43.19,19.02-66.66-1.77-8.23-4.97-16.32-9.65-23.91l-141.63-230.28-31.66,58.54,124.2,201.93c6.22,10.1.57,17.89-2.15,20.76-2.72,2.87-10.16,8.95-20.6,3.3l-89.17-48.22-115.22,3.2,176.97,95.71Z"/>
      </g>
    </g>
  </g>
</svg>
